<svg id="visual" viewBox="0 0 1920 1080" width="1920" height="1080" xmlns="http://www.w3.org/2000/svg" xmlns:xlink="http://www.w3.org/1999/xlink" version="1.1"><rect x="0" y="0" width="1920" height="1080" fill="#001220"></rect><defs><linearGradient id="grad1_0" x1="43.8%" y1="0%" x2="100%" y2="100%"><stop offset="14.444444444444446%" stop-color="#001220" stop-opacity="1"></stop><stop offset="85.55555555555554%" stop-color="#001220" stop-opacity="1"></stop></linearGradient></defs><defs><linearGradient id="grad2_0" x1="0%" y1="0%" x2="56.3%" y2="100%"><stop offset="14.444444444444446%" stop-color="#001220" stop-opacity="1"></stop><stop offset="85.55555555555554%" stop-color="#001220" stop-opacity="1"></stop></linearGradient></defs><g transform="translate(1920, 0)"><path d="M0 594C-56.8 574.1 -113.6 554.1 -175.5 540.2C-237.4 526.3 -304.4 518.4 -349.1 480.6C-393.9 442.7 -416.4 374.9 -437.7 318C-459 261.1 -479.2 215.3 -505 164.1C-530.9 112.9 -562.4 56.5 -594 0L0 0Z" fill="#FBAE3C"></path></g><g transform="translate(0, 1080)"><path d="M0 -594C58.2 -572.4 116.4 -550.8 172.7 -531.6C229.1 -512.5 283.6 -495.8 340.3 -468.4C397 -441 455.9 -402.9 480.6 -349.1C505.2 -295.4 495.6 -226.1 508.8 -165.3C522 -104.5 558 -52.3 594 0L0 0Z" fill="#FBAE3C"></path></g></svg>