<svg id="Layer_1" enable-background="new 0 0 511.999 511.999" height="512" viewBox="0 0 511.999 511.999" width="512" xmlns="http://www.w3.org/2000/svg"><path d="m380.499 421.999h30v30h-30z"/><path d="m440.499 421.999h30v30h-30z"/><path d="m350.499 481.999h30v30h-30z"/><path d="m410.499 481.999h30v30h-30z"/><path d="m470.499 481.999h30v30h-30z"/><path d="m403.944 350.018c29.243-29.242 29.243-76.824 0-106.066l-20.458-20.458c-30.224-40.301-53.226-71.172-70.047-93.748-56.873-76.33-56.873-76.33-82.682-101.62-16.965-16.622-17.93-17.77-28.338-28.126l-190.919 190.919c8.605 8.648 12.288 12.171 28.319 28.536 25.16 25.683 25.16 25.683 100.302 81.655 22.768 16.96 53.898 40.147 94.872 70.876l20.459 20.458c29.241 29.242 76.823 29.244 106.066 0zm-160.508-9.197c-36.336-27.229-64.413-48.142-85.394-63.771-73.269-54.576-73.269-54.576-96.792-78.589-2.189-2.235-4.629-4.726-7.364-7.502l148.573-148.573c2.697 2.657 5.122 5.033 7.301 7.168 24.143 23.656 24.143 23.656 79.622 98.116 15.476 20.771 36.193 48.575 62.939 84.266zm33.229 30.41-10.606-10.606 106.066-106.066 10.606 10.606c13.827 13.828 16.749 34.485 8.782 51.209l-19.389-19.389-21.213 21.213 21.213 21.213-21.213 21.213-21.213-21.213-21.213 21.213 19.389 19.389c-16.723 7.966-37.381 5.046-51.209-8.782z"/><path d="m232.166 91.547h30v151.678h-30z" transform="matrix(.804 -.594 .594 .804 -51.092 179.695)"/><path d="m103.047 220.666h151.678v30h-151.678z" transform="matrix(-.804 -.594 .594 -.804 182.664 531.511)"/></svg>